<svg width="24" height="24" viewBox="0 0 24 24" fill="none" xmlns="http://www.w3.org/2000/svg">
<path fill-rule="evenodd" clip-rule="evenodd" d="M17.852 20.8013C18.1471 21.0065 18.5275 21.0578 18.8667 20.9318C19.2059 20.8049 19.4552 20.5205 19.5304 20.1758C20.3269 16.5001 22.2592 7.19684 22.9843 3.85333C23.0393 3.60133 22.9476 3.33943 22.746 3.17113C22.5443 3.00283 22.2647 2.95423 22.0154 3.04513C18.1719 4.44194 6.33524 8.80244 1.49719 10.5601C1.19011 10.6717 0.990282 10.9615 1.00036 11.2792C1.01136 11.5978 1.22953 11.8741 1.54394 11.9668C3.71364 12.604 6.56165 13.4905 6.56165 13.4905C6.56165 13.4905 7.89262 17.4371 8.58653 19.4441C8.67361 19.6961 8.87435 19.8941 9.13926 19.9625C9.40326 20.03 9.68558 19.9589 9.88266 19.7762C10.9973 18.743 12.7206 17.1454 12.7206 17.1454C12.7206 17.1454 15.9949 19.5026 17.852 20.8013ZM7.75971 12.9919L9.29876 17.9762L9.64067 14.8198C9.64067 14.8198 15.587 9.55394 18.9767 6.55244C19.0757 6.46424 19.0895 6.31664 19.007 6.21314C18.9254 6.10964 18.775 6.08534 18.6623 6.15554C14.7336 8.61884 7.75971 12.9919 7.75971 12.9919Z" fill="black"/>
</svg>
