<svg width="24" height="24" viewBox="0 0 24 24" fill="none" xmlns="http://www.w3.org/2000/svg">
<path fill-rule="evenodd" clip-rule="evenodd" d="M10.3147 8.92365H13.4715V10.4962C13.9263 9.59175 15.0925 8.77915 16.8444 8.77915C20.2027 8.77915 21 10.5795 21 13.8826V20H17.6V14.6348C17.6 12.7537 17.1453 11.693 15.9876 11.693C14.3819 11.693 13.7147 12.8362 13.7147 14.634V20H10.3147V8.92365ZM4.4845 19.8555H7.8845V8.77915H4.4845V19.8555ZM8.37155 5.1675C8.37168 5.45248 8.31516 5.73465 8.20528 5.9976C8.0954 6.26055 7.93435 6.49904 7.7315 6.6992C7.32044 7.10773 6.76404 7.33641 6.1845 7.335C5.60598 7.33461 5.05086 7.10652 4.6392 6.70005C4.43708 6.49921 4.27658 6.26045 4.16689 5.99747C4.05721 5.73448 4.00049 5.45244 4 5.1675C4 4.59205 4.2295 4.04125 4.64005 3.63495C5.05135 3.22793 5.6067 2.99975 6.18535 3C6.76505 3 7.32095 3.22865 7.7315 3.63495C8.1412 4.04125 8.37155 4.59205 8.37155 5.1675Z" fill="#131313"/>
</svg>
