<svg width="24" height="24" viewBox="0 0 24 24" fill="none" xmlns="http://www.w3.org/2000/svg">
<path fill-rule="evenodd" clip-rule="evenodd" d="M14.3526 6.79235C13.931 6.40255 13.2547 6.40255 12.8331 6.79235C12.389 7.20294 12.389 7.8933 12.8331 8.30389L15.7493 11H5.57283C5.25968 11 5 11.4533 5 12C5 12.5467 5.25968 13 5.57283 13H15.7473L12.8331 15.6943C12.389 16.1049 12.389 16.7952 12.8331 17.2058C13.053 17.4091 13.3285 17.5 13.5929 17.5C13.8572 17.5 14.1327 17.4091 14.3526 17.2058L19.1669 12.7549C19.611 12.3443 19.611 11.6539 19.1669 11.2433L14.3526 6.79235Z" fill="#131313"/>
</svg>
