<svg width="24" height="24" viewBox="0 0 24 24" fill="none" xmlns="http://www.w3.org/2000/svg">
<path d="M8.2896 21C15.8368 21 19.9648 14.459 19.9648 8.78673C19.9648 8.60094 19.9648 8.41599 19.9528 8.23188C20.7559 7.62424 21.4491 6.87187 22 6.00999C21.2512 6.3573 20.4567 6.58495 19.6432 6.68535C20.4998 6.14896 21.141 5.3052 21.4472 4.31115C20.6417 4.81118 19.7605 5.16356 18.8416 5.35305C18.2229 4.66488 17.4047 4.20919 16.5135 4.0565C15.6223 3.90381 14.7078 4.06263 13.9116 4.50838C13.1154 4.95414 12.4819 5.66197 12.109 6.52236C11.7361 7.38274 11.6446 8.34771 11.8488 9.26793C10.2174 9.18232 8.62146 8.73881 7.16455 7.96618C5.70763 7.19355 4.4223 6.10908 3.392 4.78314C2.86727 5.7281 2.70656 6.84675 2.94258 7.91131C3.17861 8.97587 3.79362 9.90631 4.6624 10.5132C4.00936 10.4932 3.37054 10.3089 2.8 9.97592V10.0303C2.80026 11.0214 3.12821 11.9818 3.72823 12.7487C4.32824 13.5156 5.16338 14.0419 6.092 14.2381C5.4879 14.4105 4.85406 14.4357 4.2392 14.3117C4.50151 15.1646 5.01202 15.9104 5.69937 16.4448C6.38671 16.9793 7.21652 17.2757 8.0728 17.2927C7.22203 17.9922 6.24776 18.5094 5.20573 18.8147C4.16369 19.12 3.07435 19.2074 2 19.0719C3.87653 20.3315 6.05994 20.9997 8.2896 20.9967" fill="#131313"/>
</svg>
