<svg width="40" height="40" viewBox="0 0 40 40" fill="none" xmlns="http://www.w3.org/2000/svg">
<path d="M8.62246 16.5823C8.62246 12.6267 8.62246 8.67111 8.62246 4.71842C8.62246 4.48402 8.56654 4.13241 8.6872 4.04744C8.84316 3.93902 9.15214 4.05037 9.39344 4.05037C12.2626 4.05916 15.1317 4.06795 18.0008 4.06502C20.5933 4.06502 23.0446 4.65689 25.3428 5.84065C28.5151 7.47563 30.8751 9.92518 32.4347 13.1131C33.5441 15.381 34.0414 17.7925 33.9973 20.3299C33.9532 23.0725 33.2822 25.6422 31.9021 27.9921C29.7481 31.6635 26.5994 34.1306 22.5002 35.37C21.1466 35.7802 19.7635 35.9912 18.3451 35.9854C15.4407 35.9736 12.5392 35.9824 9.63474 35.9854C8.23991 35.9854 6.84213 36 5.44729 36C5.29721 36 5.15008 35.9385 5 35.9033C5.04414 35.748 5.05885 35.5722 5.14125 35.4404C6.12117 33.864 7.11285 32.2964 8.09866 30.7258C8.1428 30.6526 8.21342 30.5881 8.23696 30.512C8.38998 30.008 8.73722 29.967 9.21982 29.9728C12.2479 30.0021 15.2818 30.1017 18.301 29.9582C22.3119 29.7706 25.3105 27.8221 27.0202 24.18C28.6122 20.7899 28.2885 17.476 26.1756 14.3701C24.563 12.0026 22.2913 10.6255 19.4663 10.2006C18.6394 10.0746 17.7831 10.1303 16.9385 10.1156C16.2999 10.1039 15.6643 10.1215 15.0258 10.101C14.7521 10.0922 14.6991 10.1889 14.6991 10.4379C14.705 15.296 14.7079 20.1541 14.6991 25.0122C14.6991 26.2194 14.6491 27.4266 14.6432 28.6367C14.6432 28.9356 14.552 29.0381 14.243 29.0352C12.5274 29.0235 10.8118 29.0264 9.09329 29.0411C8.75782 29.0411 8.64894 28.9356 8.64894 28.5986C8.65777 24.5961 8.65483 20.5907 8.65483 16.5882C8.64305 16.5882 8.63128 16.5882 8.61657 16.5882L8.62246 16.5823Z" fill="#009344"/>
</svg>
