<svg width="40" height="40" viewBox="0 0 40 40" fill="none" xmlns="http://www.w3.org/2000/svg">
<path d="M9.42982 14.3996L19.2216 10.928C19.7316 10.7963 20.2654 10.7963 20.7741 10.928L30.5659 14.3996C30.8064 14.4608 31.0191 14.2307 30.9385 13.9939L28.2432 6.39352C28.2101 6.29509 28.1309 6.21927 28.0305 6.19133L20.8349 3.11472C20.2866 2.96176 19.7079 2.96176 19.1595 3.11472L11.964 6.19266C11.8649 6.2206 11.7856 6.29642 11.7526 6.39485L9.05722 13.9953C8.97795 14.232 9.19067 14.4621 9.42982 14.4009V14.3996Z" fill="#5025FF"/>
<path d="M36.2104 19.51L20.9168 14.7707C20.6143 14.6962 20.3064 14.6589 19.9972 14.6589C19.6881 14.6589 19.3802 14.6962 19.0776 14.7707L3.78543 19.51C3.2305 19.647 2.89226 20.2123 3.03099 20.7709L6.88906 36.3043C6.96701 36.6169 7.18502 36.8696 7.47702 36.9999C11.347 36.0329 15.0069 35.0486 19.9999 35.0486C24.9929 35.0486 28.6528 36.0329 32.5227 36.9999C32.8134 36.8709 33.0327 36.6169 33.1107 36.3043L36.9688 20.7709C37.1075 20.2123 36.7692 19.6483 36.2143 19.51H36.2104Z" fill="#5025FF"/>
</svg>
