<svg width="40" height="40" viewBox="0 0 40 40" fill="none" xmlns="http://www.w3.org/2000/svg">
<path d="M5.94109 8.60787L2.12874 22.8364C1.77973 24.1379 2.15193 25.5267 3.10441 26.4791L13.5206 36.8953C14.4737 37.8478 15.8618 38.22 17.1633 37.8716L31.3919 34.0587C32.6934 33.7102 33.7099 32.6937 34.0589 31.3922L37.8713 17.1637C38.2203 15.8622 37.8481 14.4734 36.895 13.521L26.4794 3.10475C25.5263 2.15167 24.1376 1.78007 22.8367 2.12848L8.60753 5.94143C7.30665 6.28984 6.2901 7.30638 5.94109 8.60787ZM23.8551 30.0791C23.7763 30.3738 23.8514 30.5294 23.9441 30.621L24.4268 31.078C24.5293 31.2061 24.6288 31.1994 24.9857 31.1036L30.1398 29.7228C31.0233 29.486 31.1679 29.6032 30.9422 30.4446L30.5871 31.7693C30.3839 32.5277 30.0794 32.8627 29.2593 33.0824L23.3486 34.6664C22.4858 34.897 21.9648 34.8024 21.5639 34.4028L20.4863 33.324C20.1434 32.928 19.9689 32.4869 20.155 31.7931L22.1277 24.4308C22.3254 23.6943 22.7336 23.1159 23.3944 22.4709L25.2462 20.5879C25.9241 19.8795 26.6484 19.5098 27.474 19.2688L33.3847 17.6848C34.2054 17.4651 34.3634 17.6774 34.1663 18.4127L33.8051 19.7587C33.597 20.5373 33.2199 20.8534 32.4615 21.0559L27.1616 22.4764C27.0145 22.5161 26.7814 22.6564 26.6692 22.7839L25.6874 23.7504C25.5812 23.8566 25.45 24.1263 25.411 24.2728L23.8551 30.0791ZM10.5814 28.8527L7.256 25.5273L6.27546 27.0002C6.03383 27.3181 5.85444 27.4054 5.4078 26.9593L4.3101 25.8342C3.78658 25.3107 3.80244 24.7408 4.15207 24.2368L11.2819 13.9499C11.5028 13.6369 11.6694 13.6704 12.0849 14.086L13.2405 15.241C13.6866 15.6877 13.7415 15.8488 13.7317 16.3204L13.5035 33.6407C13.4797 34.6041 13.426 34.9501 12.7481 34.2722L11.3472 32.8713C10.8237 32.3477 10.5247 31.8358 10.5308 31.2287L10.5814 28.8527ZM8.88698 23.1568L10.673 24.9427L10.7657 20.3689L8.88698 23.1568ZM11.983 7.23499C11.3978 6.64984 11.4967 6.42773 12.2746 6.21906L18.5643 4.53438C19.4478 4.29702 19.9805 4.35011 20.9427 4.61919L22.6189 5.06828C23.4932 5.30258 23.9399 5.45573 24.4793 5.99512L26.358 7.87384C26.851 8.36685 26.8931 8.86292 26.7766 9.22597L26.7711 9.24672L27.7022 9.48529C28.5979 9.71411 28.9994 9.8215 29.4613 10.2834L31.4938 12.3159C32.0326 12.8547 32.0222 13.1115 31.8709 13.6009L31.5798 14.6162C31.4126 15.169 31.2875 15.4168 30.3406 15.6706L23.7995 17.4236C22.8519 17.6774 22.3772 17.6286 21.7298 16.9818L11.983 7.23499ZM26.5538 11.8039C26.5081 11.7582 26.3946 11.6709 26.2488 11.6325L25.5928 11.4568C25.4476 11.4177 25.3006 11.4568 25.1742 11.4909L21.5773 12.4544L23.5024 14.3789L27.2464 13.3757C27.3507 13.3477 27.4142 13.3312 27.4368 13.247L27.5173 12.8742C27.5393 12.7894 27.4471 12.6972 27.4166 12.6667L26.5538 11.8039ZM21.6304 7.51994C21.6145 7.50407 21.5071 7.39668 21.3607 7.35763L20.6535 7.15689C20.5443 7.1276 20.313 7.18923 20.2709 7.20082L17.1578 8.03492L19.114 9.99051L22.2265 9.15641C22.3321 9.12834 22.4639 9.07343 22.4864 8.98923L22.5774 8.57492C22.5999 8.49011 22.5694 8.45899 22.4925 8.38211L21.6304 7.51994Z" fill="white"/>
</svg>
