<svg width="40" height="40" viewBox="0 0 40 40" fill="none" xmlns="http://www.w3.org/2000/svg">
<path d="M21.8905 39H17.8369C17.9792 38.9871 18.1214 38.9751 18.2637 38.9622C18.2189 38.9383 18.1742 38.9334 18.1294 38.9284C17.6569 38.8747 17.1814 38.8398 16.7119 38.7632C15.746 38.6061 14.805 38.3464 13.8809 38.0301C12.1431 37.4362 10.5226 36.6116 9.02157 35.5512C6.5765 33.8232 4.65367 31.6328 3.22225 29.0076C2.40258 27.5055 1.80972 25.9179 1.43271 24.2496C1.25565 23.4658 1.11042 22.6769 1.09351 21.8692C1.09251 21.7995 1.07958 21.7309 1.07262 21.6613C1.05173 21.707 1.04576 21.7518 1.04078 21.7965C1.02686 21.9269 1.01393 22.0582 1 22.1885C1 20.7709 1 19.3534 1 17.9359C1.0189 18.0761 1.03681 18.2154 1.05571 18.3557C1.44664 13.7628 3.27099 9.82356 6.51582 6.57168C9.75668 3.32476 13.6859 1.48246 18.2229 1.03979C18.1543 1.02984 18.0448 1.01492 17.9364 1C19.346 1 20.7545 1 22.1641 1C22.0288 1.01592 21.8925 1.03084 21.796 1.04277C26.336 1.4944 30.2622 3.34068 33.5021 6.58859C36.7419 9.83749 38.5484 13.7797 38.9702 18.3179C38.9761 18.289 38.9881 18.2243 39 18.1607V21.7916C38.9881 21.7518 38.9751 21.713 38.9741 21.707C38.5325 26.2491 36.724 30.1943 33.4752 33.4393C30.2334 36.6772 26.3071 38.5165 21.7652 38.9672C21.789 38.9731 21.8398 38.9871 21.8905 39ZM21.6368 16.2716C21.4618 16.2716 21.3175 16.2746 21.1733 16.2706C21.0887 16.2686 21.049 16.3005 21.0261 16.384C20.9545 16.6556 20.8908 16.9302 20.7963 17.1928C20.4243 18.2273 19.8533 19.1246 18.952 19.7841C18.6079 20.0358 18.2289 20.2377 17.8151 20.3134C16.9218 20.4765 16.2225 20.199 15.6784 19.4101C15.365 18.9555 15.2128 18.4372 15.1412 17.8911C15.0387 17.1092 15.1193 16.3472 15.3501 15.5972C15.3959 15.449 15.3949 15.443 15.2506 15.4012C14.3484 15.1436 13.4362 14.9128 12.5459 14.6183C11.6238 14.3139 10.7156 13.9648 9.81239 13.6066C8.63064 13.1381 7.48271 12.592 6.36462 11.9842C6.24128 11.9175 6.11892 11.8469 5.99458 11.7813C5.92395 11.7445 5.87621 11.7653 5.85731 11.8459C5.71904 12.4348 5.59868 13.0277 5.57779 13.6345C5.55093 14.4293 5.6126 15.2142 5.80956 15.9881C6.15075 17.331 6.77147 18.5228 7.7105 19.5434C8.79179 20.7192 10.1048 21.519 11.6487 21.9338C12.0118 22.0313 12.0127 22.0253 12.0476 22.4024C12.1341 23.3384 12.2206 24.2745 12.3092 25.2106C12.3679 25.8333 12.4305 26.455 12.4892 27.0777C12.5589 27.8159 12.6255 28.554 12.6971 29.2921C12.7827 30.1784 12.8762 31.0638 12.9607 31.9501C13.0493 32.8772 13.1318 33.8053 13.2154 34.7335C13.2224 34.8091 13.2472 34.8419 13.3298 34.8409C13.6073 34.8379 13.8848 34.8429 14.1624 34.8429C17.7096 34.8429 21.2578 34.8429 24.8051 34.8419C24.8518 34.8419 24.8996 34.8369 24.9593 34.8329C23.4164 31.5423 22.0457 28.2048 20.9326 24.754C20.9783 24.748 21.0032 24.741 21.0271 24.741C21.9472 24.7351 22.8673 24.7311 23.7865 24.7212C23.881 24.7212 23.9048 24.752 23.9128 24.8395C23.9486 25.2643 23.9924 25.6891 24.0292 26.1138C24.0491 26.3396 24.0441 26.3416 24.2639 26.3436C24.5246 26.3456 24.7862 26.3426 25.0468 26.3426C26.8164 26.3426 28.5861 26.3426 30.3557 26.3426C30.4343 26.3426 30.5129 26.3426 30.5915 26.3426C30.6561 26.3436 30.681 26.3148 30.6721 26.2511C30.6611 26.1646 30.6502 26.078 30.6442 25.9915C30.5905 25.2394 30.5398 24.4874 30.484 23.7353C30.3985 22.5665 30.307 21.3976 30.2224 20.2278C30.1578 19.3355 30.1011 18.4422 30.0384 17.5489C30.0255 17.3559 30.0056 17.1629 29.9877 16.958C29.9141 16.963 29.8494 16.965 29.7847 16.9729C29.6246 16.9928 29.4644 17.0177 29.3043 17.0366C28.6259 17.1162 27.9465 17.1918 27.2691 17.2753C26.5787 17.3599 25.8893 17.4524 25.199 17.539C24.5872 17.6155 23.9745 17.6892 23.3627 17.7618C23.2682 17.7727 23.2185 17.7956 23.2324 17.914C23.2971 18.473 23.3478 19.0341 23.4085 19.5941C23.4184 19.6896 23.3926 19.7254 23.2951 19.7384C22.8643 19.7951 22.4346 19.8577 22.0049 19.9224C21.3096 20.0259 20.6142 20.1323 19.9179 20.2328C19.8801 20.2377 19.8065 20.2079 19.8015 20.183C19.7657 20.0219 19.7399 19.8577 19.722 19.6936C19.718 19.6568 19.7538 19.6101 19.7817 19.5762C19.8951 19.439 20.0144 19.3076 20.1278 19.1694C20.7575 18.4024 21.2161 17.5409 21.5324 16.6019C21.5662 16.5014 21.5941 16.398 21.6339 16.2666L21.6368 16.2716ZM31.8667 7.49382C27.7575 7.97429 23.6581 8.39209 19.4872 8.18419C21.3911 10.1757 22.1849 12.5074 21.8487 15.2052C21.9382 15.2052 22.0238 15.2013 22.1093 15.2052C22.2993 15.2172 22.4893 15.2381 22.6793 15.247C23.7218 15.2958 24.7643 15.3654 25.8078 15.3833C27.1745 15.4072 28.5413 15.3913 29.9081 15.3883C30.1538 15.3883 30.1538 15.3783 30.1996 15.1316C30.2025 15.1157 30.2065 15.0998 30.2105 15.0829C30.4254 14.1219 30.6412 13.162 30.8561 12.201C31.0272 11.4341 31.1983 10.6671 31.3654 9.89916C31.5315 9.13518 31.6917 8.37021 31.8548 7.60623C31.8618 7.57539 31.8618 7.54356 31.8677 7.49382H31.8667Z" fill="black"/>
</svg>
