<svg width="40" height="40" viewBox="0 0 40 40" fill="none" xmlns="http://www.w3.org/2000/svg">
<path d="M26.4922 7.87999L24.5765 5.97467C24.0443 5.44542 23.6186 5.23371 22.6607 5.02201L20.9578 4.59861C20 4.28106 19.4678 4.28106 18.6164 4.49276L12.337 6.29222C11.592 6.50392 11.4856 6.71563 12.0177 7.35073L21.8093 17.089C22.4479 17.7241 22.98 17.83 23.9379 17.5124L30.5366 15.713C31.4944 15.5013 31.6009 15.1837 31.8137 14.6544L32.133 13.5959C32.2394 13.0667 32.3459 12.855 31.7073 12.3257L29.6851 10.3146C29.2594 9.89115 28.8337 9.7853 27.8758 9.46775L26.9179 9.25605C27.0244 8.9385 27.0244 8.40924 26.4922 7.87999ZM17.2328 8.09169L20.3193 7.24488C20.3193 7.24488 20.6386 7.13903 20.745 7.24488L21.49 7.45658C21.5964 7.45658 21.7029 7.56243 21.8093 7.66828L22.6607 8.40924C22.7672 8.51509 22.7672 8.51509 22.7672 8.62094L22.6607 9.04435C22.6607 9.1502 22.5543 9.1502 22.4479 9.25605L19.3614 10.1029L17.2328 8.09169ZM27.5565 12.7491C27.5565 12.7491 27.6629 12.855 27.6629 12.9608L27.5565 13.2784C27.5565 13.3842 27.4501 13.3842 27.3437 13.3842L23.6186 14.3369L21.7029 12.4316L25.3215 11.4789C25.4279 11.4789 25.6408 11.3731 25.7472 11.4789L26.3858 11.6906C26.4922 11.6906 26.5986 11.7965 26.7051 11.9023L27.5565 12.7491Z" fill="#14D514"/>
<path d="M25.5344 24.2868C25.5344 24.181 25.7473 23.8634 25.8537 23.7575L26.8116 22.8049C26.918 22.699 27.1309 22.4873 27.3437 22.4873L32.6652 21.1113C33.4102 20.8996 33.836 20.582 34.0488 19.8411L34.3681 18.465C34.581 17.724 34.3681 17.5123 33.6231 17.724L27.663 19.3118C26.8116 19.5235 26.0666 19.9469 25.428 20.582L23.6187 22.4873C22.9801 23.1224 22.5544 23.7575 22.3415 24.4985L20.3193 31.9081C20.1065 32.649 20.3193 33.0724 20.6386 33.39L21.7029 34.4485C22.1286 34.8719 22.6608 34.9777 23.5122 34.6602L29.4723 33.0724C30.3238 32.8607 30.643 32.5432 30.8559 31.8022L31.1752 30.4262C31.3881 29.5793 31.2816 29.4735 30.3238 29.6852L25.1087 31.0613C24.7894 31.1671 24.683 31.1671 24.5765 31.0613L24.0444 30.6379C23.938 30.532 23.8315 30.4262 23.938 30.1086L25.5344 24.2868Z" fill="#1E6EF7"/>
<path d="M11.3791 32.9666L12.7627 34.3427C13.4013 34.9778 13.5077 34.6602 13.5077 33.7076L13.7206 16.348C13.7206 15.9246 13.7206 15.7129 13.1884 15.2895L12.0177 14.1252C11.6984 13.7018 11.592 13.7018 11.3791 14.0193L4.14184 24.2869C3.82255 24.8161 3.82255 25.3454 4.24827 25.8746L5.31257 27.039C5.73829 27.4624 5.95115 27.3565 6.16401 27.039L7.33474 25.5571L10.6341 28.8384V31.1672C10.6341 31.9081 10.8469 32.4374 11.3791 32.9666ZM8.9312 23.2284L10.8469 20.4762L10.7405 25.0278L8.9312 23.2284Z" fill="#F7224F"/>
<path d="M5.95122 8.62103L2.11973 22.9109C1.80044 24.1811 2.11973 25.5572 3.07761 26.5098L13.5078 36.8832C14.4656 37.8359 15.8492 38.2593 17.1264 37.8359L31.388 34.0252C32.6652 33.7077 33.7295 32.6492 34.0488 31.379L37.8803 17.1949C38.1996 15.9247 37.8803 14.5487 36.9224 13.596L26.5987 3.11678C25.6408 2.16412 24.2572 1.74072 22.98 2.16412L8.61197 5.97476C7.33481 6.39816 6.37694 7.35082 5.95122 8.62103ZM23.9379 30.1088C23.8315 30.4263 23.9379 30.5322 24.0443 30.638L24.5765 31.0614C24.6829 31.1673 24.7894 31.1673 25.1086 31.0614L30.3237 29.6854C31.1752 29.4737 31.388 29.5795 31.1752 30.4263L30.7494 31.8024C30.5366 32.5433 30.2173 32.8609 29.3659 33.0726L23.4058 34.6603C22.5543 34.872 22.0222 34.7662 21.5965 34.4486L20.5322 33.3901C20.2129 32.9667 20 32.5433 20.2129 31.9082L22.235 24.4987C22.4479 23.7577 22.8736 23.2284 23.5122 22.4875L25.3215 20.5822C25.9601 19.8412 26.7051 19.5237 27.5565 19.312L33.5166 17.7242C34.3681 17.5125 34.4745 17.7242 34.2616 18.4652L33.9423 19.8412C33.7295 20.5822 33.3038 20.8997 32.5588 21.1114L27.2373 22.4875C27.1308 22.4875 26.8115 22.6992 26.7051 22.805L25.7472 23.7577C25.6408 23.8636 25.5344 24.1811 25.4279 24.287L23.9379 30.1088ZM10.6341 28.9444L7.33481 25.5572L6.27051 27.0391C6.05765 27.3566 5.84479 27.4625 5.41907 27.0391L4.35477 25.8747C3.82262 25.3455 3.82262 24.8162 4.14191 24.287L11.2727 14.0194C11.4856 13.7019 11.6984 13.7019 12.1242 14.1253L13.2949 15.2896C13.7206 15.713 13.8271 15.9247 13.8271 16.3481L13.6142 33.7077C13.6142 34.6603 13.5078 34.9779 12.8692 34.3428L11.4856 32.9667C10.9534 32.4375 10.6341 31.9082 10.6341 31.2731V28.9444ZM8.93126 23.2285L10.7406 25.0279L10.847 20.4763L8.93126 23.2285ZM12.0177 7.24497C11.3792 6.60986 11.4856 6.39816 12.337 6.18646L18.6164 4.49284C19.4678 4.28114 20 4.28114 20.9579 4.59869L22.6608 5.0221C23.5122 5.2338 23.9379 5.4455 24.5765 5.97476L26.4922 7.88007C27.0244 8.40933 27.0244 8.83273 26.918 9.25613L27.8758 9.46783C28.7273 9.67954 29.153 9.78539 29.6851 10.3146L31.7073 12.3258C32.2395 12.8551 32.2395 13.1726 32.133 13.596L31.8137 14.6545C31.6009 15.1838 31.4945 15.5013 30.5366 15.713L23.9379 17.5125C22.98 17.7242 22.5543 17.7242 21.8093 17.0891L12.0177 7.24497ZM26.7051 11.9024C26.7051 11.9024 26.4922 11.7966 26.3858 11.6907L25.7472 11.479C25.6408 11.479 25.4279 11.479 25.3215 11.479L21.7029 12.4317L23.6186 14.337L27.3437 13.3843C27.4501 13.3843 27.5565 13.3843 27.5565 13.2785L27.663 12.8551C27.663 12.7492 27.5565 12.6434 27.5565 12.6434L26.7051 11.9024ZM21.7029 7.56252C21.7029 7.56252 21.5965 7.45667 21.3836 7.35082L20.6386 7.13912C20.5322 7.13912 20.3193 7.13912 20.2129 7.13912L17.1264 7.98592L19.0421 9.89124L22.1286 9.04443C22.235 9.04443 22.3415 8.93858 22.3415 8.83273L22.4479 8.40933C22.4479 8.30348 22.4479 8.30348 22.3415 8.19762L21.7029 7.56252Z" fill="white"/>
</svg>
