<svg width="40" height="40" viewBox="0 0 40 40" fill="none" xmlns="http://www.w3.org/2000/svg">
<path d="M7.87898 17.9526C9.68978 18.2249 11.4828 18.6489 13.2657 19.0808C14.1413 19.2928 14.8963 19.2928 15.6564 18.7156C16.9482 17.7341 18.2856 16.8166 19.6054 15.8743C19.7855 15.7448 19.9772 15.6309 20.2449 15.4569C20.3071 16.9632 20.3756 18.3479 20.4048 19.7338C20.4086 19.8896 20.2221 20.1042 20.0685 20.1984C17.7476 21.6263 15.4178 23.0397 13.0893 24.4532C12.6629 24.7123 12.2251 24.9544 11.7937 25.2044C11.8038 25.2201 11.8127 25.2345 11.8229 25.2502C14.7021 24.3616 17.5814 23.4716 20.5279 22.562C20.7017 26.5707 20.868 30.3857 21.0342 34.202C21.0926 34.2059 21.1497 34.2099 21.208 34.2138C21.2309 34.0136 21.2702 33.8133 21.274 33.6131C21.2893 32.8946 21.2766 32.1761 21.3032 31.4576C21.4111 28.5875 21.5253 25.7161 21.6509 22.8473C21.6598 22.6576 21.7473 22.3435 21.8641 22.3055C22.9592 21.9561 24.0695 21.6538 25.2167 21.3253C25.407 26.9529 25.5948 32.4771 25.7813 38C25.8422 38 25.9032 38 25.9653 38C25.9793 37.8652 26.0021 37.7304 26.0047 37.5943C26.0478 35.8746 26.044 34.1536 26.1379 32.4378C26.3397 28.7877 26.6011 25.1429 26.8155 21.4941C26.846 20.985 27.0351 20.7664 27.5058 20.5924C31.2505 19.2064 34.815 17.4147 38.278 15.4045C38.5356 15.2553 38.7602 15.0446 39 14.8627C34.8759 14.2698 30.8978 14.3536 27.2609 16.5091C27.1049 16.3272 27.0617 16.2421 26.9932 16.2028C26.6074 15.9777 26.2141 15.7644 25.8245 15.5459C25.6062 15.9751 25.3816 16.4018 25.1761 16.8376C25.1342 16.9266 25.1849 17.0588 25.157 17.1595C25.1253 17.276 25.0809 17.4331 24.9946 17.4802C24.0581 17.9971 23.1127 18.4971 22.0227 19.0795C22.4047 17.3244 22.7612 15.7409 23.0874 14.152C23.1863 13.6704 23.3932 13.3458 23.8373 13.126C28.285 10.9142 32.725 8.68671 37.1676 6.46446C37.4608 6.31788 37.759 6.18047 38.0559 6.03912C37.9049 5.97368 37.7856 6.00248 37.6689 6.03781C32.786 7.50361 27.9005 8.96417 23.0226 10.4483C22.5544 10.5909 22.2169 10.5883 21.8286 10.2323C21.3159 9.7625 20.7246 9.38297 20.0533 8.8791C20.0533 9.62247 20.0152 10.1892 20.0647 10.748C20.1066 11.2165 19.934 11.3827 19.5165 11.5084C17.4101 12.1418 15.2858 12.7307 13.2187 13.4833C9.2393 14.9307 5.2954 16.4777 1.33754 17.9867C1.25125 18.0194 1.18019 18.0927 1 18.2183C1.25252 18.2013 1.37942 18.2026 1.50124 18.1817C3.61785 17.8244 5.75349 17.6346 7.87771 17.9526H7.87898Z" fill="black"/>
</svg>
