<svg width="50" height="50" viewBox="0 0 50 50" fill="none" xmlns="http://www.w3.org/2000/svg">
<g opacity="0.6">
<rect x="1.99316" width="2.81884" height="2.81884" transform="rotate(45 1.99316 0)" fill="#FFC700"/>
<rect x="13.4966" width="2.81884" height="2.81884" transform="rotate(45 13.4966 0)" fill="#BEC9CD"/>
<rect x="25" width="2.81884" height="2.81884" transform="rotate(45 25 0)" fill="#BEC9CD"/>
<rect x="1.99316" y="11.5034" width="2.81884" height="2.81884" transform="rotate(45 1.99316 11.5034)" fill="#BEC9CD"/>
<rect x="13.4966" y="11.5034" width="2.81884" height="2.81884" transform="rotate(45 13.4966 11.5034)" fill="#BEC9CD"/>
<rect x="25" y="11.5034" width="2.81884" height="2.81884" transform="rotate(45 25 11.5034)" fill="#FFC700"/>
<rect x="1.99316" y="23.0068" width="2.81884" height="2.81884" transform="rotate(45 1.99316 23.0068)" fill="#BEC9CD"/>
<rect x="13.4966" y="23.0068" width="2.81884" height="2.81884" transform="rotate(45 13.4966 23.0068)" fill="#BEC9CD"/>
<rect x="25" y="23.0068" width="2.81884" height="2.81884" transform="rotate(45 25 23.0068)" fill="#BEC9CD"/>
<rect x="36.5034" width="2.81884" height="2.81884" transform="rotate(45 36.5034 0)" fill="#BEC9CD"/>
<rect x="48.0068" width="2.81884" height="2.81884" transform="rotate(45 48.0068 0)" fill="#BEC9CD"/>
<rect x="36.5034" y="11.5034" width="2.81884" height="2.81884" transform="rotate(45 36.5034 11.5034)" fill="#BEC9CD"/>
<rect x="48.0068" y="11.5034" width="2.81884" height="2.81884" transform="rotate(45 48.0068 11.5034)" fill="#BEC9CD"/>
<rect x="36.5034" y="23.0068" width="2.81884" height="2.81884" transform="rotate(45 36.5034 23.0068)" fill="#BEC9CD"/>
<rect x="48.0068" y="23.0068" width="2.81884" height="2.81884" transform="rotate(45 48.0068 23.0068)" fill="#BEC9CD"/>
<rect x="1.99316" y="34.5101" width="2.81884" height="2.81884" transform="rotate(45 1.99316 34.5101)" fill="#BEC9CD"/>
<rect x="13.4966" y="34.5101" width="2.81884" height="2.81884" transform="rotate(45 13.4966 34.5101)" fill="#FFC700"/>
<rect x="25" y="34.5101" width="2.81884" height="2.81884" transform="rotate(45 25 34.5101)" fill="#BEC9CD"/>
<rect x="1.99316" y="46.0135" width="2.81884" height="2.81884" transform="rotate(45 1.99316 46.0135)" fill="#BEC9CD"/>
<rect x="13.4966" y="46.0135" width="2.81884" height="2.81884" transform="rotate(45 13.4966 46.0135)" fill="#BEC9CD"/>
<rect x="25" y="46.0135" width="2.81884" height="2.81884" transform="rotate(45 25 46.0135)" fill="#BEC9CD"/>
<rect x="36.5034" y="34.5101" width="2.81884" height="2.81884" transform="rotate(45 36.5034 34.5101)" fill="#BEC9CD"/>
<rect x="48.0068" y="34.5101" width="2.81884" height="2.81884" transform="rotate(45 48.0068 34.5101)" fill="#BEC9CD"/>
<rect x="36.5034" y="46.0135" width="2.81884" height="2.81884" transform="rotate(45 36.5034 46.0135)" fill="#BEC9CD"/>
<rect x="48.0068" y="46.0135" width="2.81884" height="2.81884" transform="rotate(45 48.0068 46.0135)" fill="#FFC700"/>
</g>
</svg>
